<svg xmlns="http://www.w3.org/2000/svg" width="320" height="320" viewBox="0 0 320 320">
  <defs>
    <linearGradient id="base" x1="0" y1="0" x2="1" y2="1">
      <stop offset="0" stop-color="#f0e3c8"/>
      <stop offset="0.5" stop-color="#e6d3b2"/>
      <stop offset="1" stop-color="#dbc29a"/>
    </linearGradient>
    <filter id="softNoise" x="-20%" y="-20%" width="140%" height="140%">
      <feTurbulence type="fractalNoise" baseFrequency="0.85" numOctaves="2" seed="19" result="noise"/>
      <feColorMatrix in="noise" type="matrix" values="0 0 0 0 0.45  0 0 0 0 0.33  0 0 0 0 0.20  0 0 0 0.15 0"/>
    </filter>
  </defs>

  <rect width="320" height="320" fill="url(#base)"/>

  <rect x="0" y="0" width="320" height="320" filter="url(#softNoise)" opacity="0.25"/>

  <ellipse cx="74" cy="58" rx="82" ry="48" fill="#fff0cd" opacity="0.24"/>
  <ellipse cx="262" cy="126" rx="96" ry="62" fill="#f1d8af" opacity="0.20"/>
  <ellipse cx="116" cy="250" rx="90" ry="56" fill="#d5b88a" opacity="0.12"/>
  <ellipse cx="282" cy="290" rx="64" ry="40" fill="#b99164" opacity="0.10"/>

  <path d="M-8 84 C52 74, 122 100, 190 88 C238 80, 282 74, 328 86" fill="none" stroke="#a87d4f" stroke-opacity="0.10" stroke-width="2"/>
  <path d="M-5 196 C58 182, 118 214, 190 204 C242 196, 284 189, 326 202" fill="none" stroke="#a67c4b" stroke-opacity="0.11" stroke-width="2"/>

  <circle cx="44" cy="170" r="5" fill="#9f7447" fill-opacity="0.16"/>
  <circle cx="144" cy="136" r="4" fill="#986b3e" fill-opacity="0.14"/>
  <circle cx="244" cy="74" r="6" fill="#8e6035" fill-opacity="0.12"/>
  <circle cx="270" cy="232" r="5" fill="#9b7044" fill-opacity="0.14"/>
</svg>
